<?xml version="1.0" encoding="UTF-8" standalone="no"?>
<!DOCTYPE svg PUBLIC "-//W3C//DTD SVG 1.1//EN"
 "http://www.w3.org/Graphics/SVG/1.1/DTD/svg11.dtd">
<!-- Generated by graphviz version 2.49.0 (0)
 -->
<!-- Pages: 1 -->
<svg width="1687pt" height="153pt"
 viewBox="0.00 0.00 1687.00 153.19" xmlns="http://www.w3.org/2000/svg" xmlns:xlink="http://www.w3.org/1999/xlink">
<g id="graph0" class="graph" transform="scale(1 1) rotate(0) translate(4 149.19)">
<polygon fill="white" stroke="transparent" points="-4,4 -4,-149.19 1683,-149.19 1683,4 -4,4"/>
<!-- 7bbd9cc8&#45;7951&#45;467d&#45;b0a1&#45;284dd21eb974 -->
<g id="node1" class="node">
<title>7bbd9cc8&#45;7951&#45;467d&#45;b0a1&#45;284dd21eb974</title>
<g id="a_node1"><a xlink:title=".">
<ellipse fill="black" stroke="black" cx="1.8" cy="-73.5" rx="1.8" ry="1.8"/>
</a>
</g>
</g>
<!-- q0 -->
<g id="node2" class="node">
<title>q0</title>
<ellipse fill="none" stroke="black" cx="60.1" cy="-73.5" rx="19.5" ry="19.5"/>
<text text-anchor="middle" x="60.1" y="-69.8" font-family="Times,serif" font-size="14.00">q0</text>
</g>
<!-- 7bbd9cc8&#45;7951&#45;467d&#45;b0a1&#45;284dd21eb974&#45;&gt;q0 -->
<g id="edge1" class="edge">
<title>7bbd9cc8&#45;7951&#45;467d&#45;b0a1&#45;284dd21eb974&#45;&gt;q0</title>
<g id="a_edge1"><a xlink:title="&#45;&gt;q0">
<path fill="none" stroke="black" d="M3.78,-73.5C7.28,-73.5 19.64,-73.5 31.78,-73.5"/>
<polygon fill="black" stroke="black" points="31.96,-76.48 40.46,-73.5 31.96,-70.53 31.96,-76.48"/>
</a>
</g>
</g>
<!-- q_dead -->
<g id="node3" class="node">
<title>q_dead</title>
<ellipse fill="none" stroke="black" cx="1329" cy="-73.5" rx="36.5" ry="36.5"/>
<text text-anchor="middle" x="1329" y="-69.8" font-family="Times,serif" font-size="14.00">q_dead</text>
</g>
<!-- q0&#45;&gt;q_dead -->
<g id="edge2" class="edge">
<title>q0&#45;&gt;q_dead</title>
<path fill="none" stroke="black" d="M77.76,-81.89C83.85,-84.53 90.89,-87.12 97.6,-88.5 215.6,-112.71 248.14,-91.61 368.6,-92.5 771.26,-95.47 875.94,-145.19 1274.6,-88.5 1278.2,-87.99 1281.9,-87.3 1285.6,-86.51"/>
<polygon fill="black" stroke="black" points="1286.53,-89.34 1294.1,-84.47 1285.14,-83.56 1286.53,-89.34"/>
<text text-anchor="middle" x="590.6" y="-115.3" font-family="Times,serif" font-size="14.00"> ,0,1,2,3,4,5,6,7,8,9,A,B,C,D,E,F,G,H,I,J,K,L,M,N,O,P,Q,R,S,T,U,V,W,X,Y,Z,_</text>
</g>
<!-- q1 -->
<g id="node4" class="node">
<title>q1</title>
<ellipse fill="none" stroke="black" cx="590.6" cy="-27.5" rx="23.5" ry="23.5"/>
<ellipse fill="none" stroke="black" cx="590.6" cy="-27.5" rx="27.5" ry="27.5"/>
<text text-anchor="middle" x="590.6" y="-23.8" font-family="Times,serif" font-size="14.00">q1</text>
</g>
<!-- q0&#45;&gt;q1 -->
<g id="edge3" class="edge">
<title>q0&#45;&gt;q1</title>
<path fill="none" stroke="black" d="M79.6,-71.89C157.55,-65.11 459.77,-38.8 558.32,-30.22"/>
<polygon fill="black" stroke="black" points="558.74,-33.17 566.95,-29.47 558.22,-27.24 558.74,-33.17"/>
<text text-anchor="middle" x="224.1" y="-73.3" font-family="Times,serif" font-size="14.00">a,b,c,d,e,f,g,h,i,j,k,l,m,n,o,p,q,r,s,t,u,v,w,x,y,z</text>
</g>
<!-- q_dead&#45;&gt;q_dead -->
<g id="edge4" class="edge">
<title>q_dead&#45;&gt;q_dead</title>
<path fill="none" stroke="black" d="M1295,-86.61C1263,-105.09 1274.3,-127.9 1329,-127.9 1379,-127.9 1392.8,-108.84 1370.3,-91.46"/>
<polygon fill="black" stroke="black" points="1371.73,-88.83 1363,-86.61 1368.44,-93.79 1371.73,-88.83"/>
<text text-anchor="middle" x="1329" y="-131.7" font-family="Times,serif" font-size="14.00"> ,0,1,2,3,4,5,6,7,8,9,A,B,C,D,E,F,G,H,I,J,K,L,M,N,O,P,Q,R,S,T,U,V,W,X,Y,Z,_,a,b,c,d,e,f,g,h,i,j,k,l,m,n,o,p,q,r,s,t,u,v,w,x,y,z</text>
</g>
<!-- q1&#45;&gt;q_dead -->
<g id="edge5" class="edge">
<title>q1&#45;&gt;q_dead</title>
<path fill="none" stroke="black" d="M614.44,-28.93C718.01,-35.4 1144.4,-62.03 1283.7,-70.74"/>
<polygon fill="black" stroke="black" points="1283.83,-73.72 1292.5,-71.28 1284.2,-67.79 1283.83,-73.72"/>
<text text-anchor="middle" x="1052.6" y="-73.3" font-family="Times,serif" font-size="14.00"> ,0,1,2,3,4,5,6,7,8,9,A,B,C,D,E,F,G,H,I,J,K,L,M,N,O,P,Q,R,S,T,U,V,W,X,Y,Z,_</text>
</g>
<!-- q1&#45;&gt;q1 -->
<g id="edge6" class="edge">
<title>q1&#45;&gt;q1</title>
<path fill="none" stroke="black" d="M567.27,-31.72C499.9,-46.28 507.67,-69 590.6,-69 669.79,-69 680.44,-48.27 622.54,-33.73"/>
<polygon fill="black" stroke="black" points="622.87,-30.75 613.92,-31.72 621.52,-36.55 622.87,-30.75"/>
<text text-anchor="middle" x="590.6" y="-72.8" font-family="Times,serif" font-size="14.00">a,b,c,d,e,f,g,h,i,j,k,l,m,n,o,p,q,r,s,t,u,v,w,x,y,z</text>
</g>
</g>
</svg>
